<?xml version="1.0" encoding="UTF-8"?>
<svg id="Calque_2" data-name="Calque 2" xmlns="http://www.w3.org/2000/svg" viewBox="0 0 132.91 128.59">
  <defs>
    <style>
      .cls-1 {
        fill: #eceae9;
      }
    </style>
  </defs>
  <g id="Calque_3" data-name="Calque 3">
    <path class="cls-1" d="M132.55,17.93S129.82,0,113.92,0H15.86S0,3.79,0,18.81v91.88s2.17,17.45,19.39,17.78c17.23.33,92.77-.11,92.77-.11,0,0,19.58,2.65,20.39-18.11s0-92.32,0-92.32ZM57.38,90.81l-4.99-13.69h-19.3l-4.86,13.69h-12.37l18.11-57.86h15.9l20.76,57.86h-13.25ZM112.15,71.82h-26.94c.44,6.63,5.74,9.72,12.37,9.72s11.93-1.77,11.93-1.77v9.28s.03,1.77-14.64,1.77c-10.98,0-21.24-6.18-21.24-20.76,0-8.17,4.08-24.74,19.39-23.85,19.99,1.15,19.14,15.68,19.14,25.62Z"/>
    <path class="cls-1" d="M86.09,61.88h16.34s-.88-5.52-8.17-5.52-8.17,5.52-8.17,5.52Z"/>
    <polygon class="cls-1" points="36.18 65.19 47.66 65.19 41.92 44.43 36.18 65.19"/>
  </g>
</svg>