<?xml version="1.0" encoding="UTF-8"?>
<svg id="Calque_2" data-name="Calque 2" xmlns="http://www.w3.org/2000/svg" viewBox="0 0 132.66 128.59">
  <defs>
    <style>
      .cls-1 {
        fill: #eceae9;
      }
    </style>
  </defs>
  <g id="Calque_3" data-name="Calque 3">
    <path class="cls-1" d="M132.27,17.93S127.85,0,114.6,0H19.63S.64,1.59.2,17.49.2,112.46.2,112.46c0,0,3.09,16.37,19.44,16.14h93.64s18.11-5.53,18.99-18.34,0-92.32,0-92.32ZM71.31,51.94c-.88,19.44-17.67,21.64-17.67,21.64h-12.37v17.23h-11.93v-57.87h20.98s21.87-.44,20.98,18.99ZM108.97,79.84c.09,7.52-5.36,14.5-16.41,14.5-10.17,0-15.07-3.53-15.07-3.53v-11.04s7.07,3.53,14.13,3.53c.07,0,.13,0,.19,0,1.12-.01,1.81-.66,2.23-1.57,1.14-2.51-.61-5.51-3.35-5.82-8.74-1-13.16-7.42-13.21-14.03-.05-5.98,1.43-15.71,17.28-15.71,10.61,0,11.87,3.12,11.87,3.12v9.83s-5.28-2.76-10.6-2.76c-.31,0-.61,0-.9.01-5.09.16-5,7.8.09,7.92.12,0,.24-.01.37,0,7.56.9,13.28,8.52,13.36,15.55Z"/>
    <path class="cls-1" d="M42.21,61.88v-17.45s18.11-2.87,17.67,8.72-17.67,8.72-17.67,8.72Z"/>
  </g>
</svg>