<?xml version="1.0" encoding="UTF-8"?>
<svg id="Calque_2" data-name="Calque 2" xmlns="http://www.w3.org/2000/svg" viewBox="0 0 117.21 95.2">
  <defs>
    <style>
      .cls-1 {
        fill: #eceae9;
      }
    </style>
  </defs>
  <g id="Calque_3" data-name="Calque 3">
    <path class="cls-1" d="M101.85,28.67L67.7,2.14c-2.46-1.91-5.7-2.66-8.67-1.75-.51.16-1.18.55-1.81.97-1.46.97-2.43,2.59-2.38,4.33.04,1.58.95,2.67,3.52,4.77,1.55,1.26,3.19,2.41,4.71,3.71l6.99,5.96H24.49c-1.94,0-3.86.55-5.4,1.73-1.38,1.05-2.63,2.66-2.63,5.04,0,.05,0,.11,0,.16.06,3.84,3.24,6.9,7.08,6.99l21.19.51L4.19,64.4c-1.69,1.25-3.05,2.94-3.73,4.93-.8,2.33-.76,5.1,1.87,7.63,1.96,1.89,4.24,2.04,6.04,1.72,1.51-.28,2.91-.98,4.12-1.94l23.42-18.62s-.29,1.77,0,3.83c.29,2.06,2.94,31.48,40.64,33.26,0,0,38.93-.15,40.66-37.38,0,0,1.14-17.55-15.34-29.15ZM78.88,76.37c-27.09,1.18-27.09-22.38-27.09-22.38.17-21.17,24.13-21.83,24.13-21.83,25.03.59,25.63,20.95,25.63,20.95.29,22.09-22.67,23.26-22.67,23.26Z"/>
    <path class="cls-1" d="M76.74,65.91s12.81,1.52,14.28-12.05c0,0,1.18-13.27-14.28-13.57,0,0-13.69-1.13-14.28,12.84,0,0,.3,13.08,14.28,12.78Z"/>
  </g>
</svg>