<?xml version="1.0" encoding="UTF-8"?>
<svg id="Calque_2" data-name="Calque 2" xmlns="http://www.w3.org/2000/svg" viewBox="0 0 117.08 114.35">
  <defs>
    <style>
      .cls-1 {
        fill: #eceae9;
      }
    </style>
  </defs>
  <g id="Calque_3" data-name="Calque 3">
    <g>
      <path class="cls-1" d="M63.7,2.16c-13.46-.08-25.54,5.18-34.85,13.55,9.09,5.91,17.68,11.46,19.32,12.36,3.74,2.06,9.31,6.05,15.52,12.04,6.16,5.93,7.68,11.97,7.68,11.97l11.92,12.17s.99.01,2.29.05c2.93.08,10.67,4.12,10.08,13.91-.59,9.79-10.08,17.01-10.08,17.01-.66-3.53,2.53-4.79-2.88-11.93-5.52-7.29-5.08-10.97-5.08-10.97l-13.94-10.09c-5.47-.29-7.48-2.36-11.45-3.98s-13.11-10.65-13.11-10.65l-19.43-21.41c-6.14,9.03-9.79,19.79-10.02,30.85-.61,29.55,23.22,57.48,54.01,57.3,30.07-.18,53.39-27.07,53.39-56.1,0-28.89-23.1-55.93-53.39-56.1ZM80.07,98.45c-2.65,2.94-10.31,5.89-19.73,5.89s-39.75-5.89-45.64-42.11c0,0,21.5,40.05,58.01,13.84,0,0,.59,5.89,5.01,10.6,4.42,4.71,5.01,8.83,2.36,11.78Z"/>
      <path class="cls-1" d="M28.85,15.71C17.32,8.2,4.98.1,4.98.1,4.98.1-1.44-1.08.3,4.81l19.41,21.39c2.62-3.85,5.69-7.39,9.14-10.49Z"/>
    </g>
    <path class="cls-1" d="M77.34,70.33s1.21-5.19,4.31-6l-10.94-10.9s-5.6,1.91-5.6,8.17l12.22,8.72Z"/>
  </g>
</svg>