<?xml version="1.0" encoding="UTF-8"?>
<svg id="Calque_2" data-name="Calque 2" xmlns="http://www.w3.org/2000/svg" viewBox="0 0 132.55 129.79">
  <defs>
    <style>
      .cls-1 {
        fill: #eceae9;
      }
    </style>
  </defs>
  <g id="Calque_2-2" data-name="Calque 2">
    <path class="cls-1" d="M43.47,63.24h12.59s4.74,0,5.24-8.91-8.88-8.98-8.88-8.98h-8.94v17.89Z"/>
    <path class="cls-1" d="M111.34.59S39.12-.74,19.56.59C0,1.91,0,19.8,0,19.8v93.42c0,7.66,7.54,16.56,16.6,16.56h96.74c13.91,0,19.21-17.89,19.21-17.89V19.8C132.55,1.91,111.34.59,111.34.59ZM58.36,74.5h-14.58v17.89h-12.59v-58.31h24.52s17.23,1.99,17.89,19.21c.66,17.23-15.24,21.2-15.24,21.2ZM106.26,57.94c-7.29,0-13.25,5.3-13.25,5.3v29.15h-13.25v-47.04h11.26s.66,13.25.66,8.94,14.58-8.94,14.58-8.94v12.59Z"/>
  </g>
</svg>