<?xml version="1.0" encoding="UTF-8"?>
<svg id="Calque_2" data-name="Calque 2" xmlns="http://www.w3.org/2000/svg" viewBox="0 0 132.91 128.59">
  <defs>
    <style>
      .cls-1 {
        fill: #eceae9;
      }
    </style>
  </defs>
  <g id="Calque_3" data-name="Calque 3">
    <path class="cls-1" d="M132.55,17.93S129.82,0,113.92,0H15.86S0,3.79,0,18.81v91.88s2.17,17.45,19.39,17.78c17.23.33,92.77-.11,92.77-.11,0,0,19.58,2.65,20.39-18.11s0-92.32,0-92.32ZM114.65,84.94l-16.34-8.83-.06-20.76-24.21,12.84.4,25.78,18.75-10.8,17.48,9.72-44.22,22.97-44.12-23.85,16.79-8.83,19.26,10.34.17-25.35-23.71-13.21.15,20.87-17.08,9.13v-49.47L62.06,11.3l.26,19.32-18.68,9.71,22.81,13.69,22.58-13.25-18.22-10.16V11.61l43.84,24.74v48.59Z"/>
  </g>
</svg>